<svg width="70" height="70" viewBox="0 0 100 100" fill="none" xmlns="http://www.w3.org/2000/svg">
<path fill-rule="evenodd" clip-rule="evenodd" d="M36.4184 12.0075C36.5742 12.0396 36.7219 12.103 36.8525 12.1939C36.9831 12.2849 37.0937 12.4015 37.1778 12.5366C37.2618 12.6717 37.3174 12.8225 37.3413 12.9799C37.3651 13.1372 37.3567 13.2977 37.3165 13.4517C37.2762 13.6056 37.2051 13.7498 37.1073 13.8754C37.0096 14.0009 36.8873 14.1052 36.7479 14.182C36.6085 14.2588 36.455 14.3063 36.2966 14.3218C36.1382 14.3373 35.9784 14.3203 35.8268 14.272C28.9021 12.4331 21.8525 13.5843 16.0674 16.9243C10.2799 20.2658 5.75684 25.7962 3.8877 32.7126C3.82666 32.9955 3.66316 33.2457 3.42866 33.4152C3.19417 33.5847 2.90526 33.6614 2.61756 33.6307C2.32987 33.5999 2.06372 33.4638 1.87038 33.2485C1.67703 33.0333 1.57015 32.7541 1.57031 32.4648C1.57031 31.8175 1.57168 32.4648 1.57168 32.4648C1.57168 32.365 1.58457 32.2636 1.61152 32.1626C3.63848 24.5978 8.575 18.5503 14.8955 14.9011C21.1982 11.2622 28.8768 10.007 36.4184 12.0075ZM32.9121 25.14C28.9771 24.1023 24.9721 24.7595 21.6834 26.6583C21.6605 26.6716 21.6385 26.6855 21.617 26.6999C18.3447 28.613 15.792 31.7568 14.7406 35.6804C14.7341 35.7047 14.7284 35.7293 14.7236 35.754L14.7223 35.7536V35.754C14.6668 36.0544 14.7308 36.3646 14.9007 36.6185C15.0705 36.8724 15.3328 37.0499 15.6316 37.1132C15.9304 37.1766 16.2422 37.1208 16.5004 36.9576C16.7587 36.7945 16.9431 36.537 17.0143 36.24C17.909 32.9497 20.0525 30.3159 22.7957 28.7138C22.8156 28.7036 22.8355 28.6931 22.8551 28.6818C25.6256 27.0822 29.001 26.5288 32.3182 27.4042C32.3572 27.4163 32.3971 27.4265 32.4381 27.4347H32.4383C32.7393 27.4895 33.0499 27.4243 33.3035 27.2531C33.5572 27.0819 33.7338 26.8183 33.7957 26.5186C33.8575 26.2189 33.7997 25.9069 33.6346 25.6493C33.4694 25.3917 33.2103 25.2089 32.9121 25.14ZM34.7928 18.6132C34.7713 18.6061 34.7496 18.5996 34.7277 18.5937L34.7287 18.5902C28.9701 17.0472 23.1031 18.0007 18.2896 20.7796C13.4779 23.5575 9.71953 28.162 8.17637 33.9214C8.09623 34.2213 8.1385 34.5407 8.29388 34.8094C8.44926 35.0781 8.70501 35.2741 9.00488 35.3542C9.30475 35.4344 9.62418 35.3921 9.89288 35.2367C10.1616 35.0813 10.3576 34.8256 10.4377 34.5257C11.8141 29.3894 15.1676 25.2822 19.4615 22.8031C23.7539 20.3249 28.9869 19.4749 34.1244 20.8515L34.1254 20.848C34.418 20.9243 34.7288 20.884 34.9923 20.7356C35.2558 20.5873 35.4514 20.3424 35.5379 20.0527C35.6245 19.763 35.5952 19.451 35.4562 19.1824C35.3173 18.9139 35.0795 18.7097 34.793 18.613L34.7928 18.6132Z" fill="#2DCFFC"/>
<path fill-rule="evenodd" clip-rule="evenodd" d="M40.9395 34.9904C41.8105 24.324 51.1047 16.3458 61.7797 17.1007C72.4549 17.8554 80.5338 27.062 79.8953 37.7447C90.0891 37.7447 98.4295 46.0851 98.4295 56.2788C98.4295 66.4726 90.0893 74.813 79.8953 74.813H19.3764C11.9977 74.7548 6.04688 68.757 6.04688 61.3781C6.04688 53.9991 11.9977 48.0013 19.3764 47.9431C17.5816 40.8286 22.2373 33.3724 28.8832 31.8031C32.9051 30.8532 37.5715 31.9329 40.9395 34.9904Z" fill="#2A93FC"/>
<path fill-rule="evenodd" clip-rule="evenodd" d="M79.8955 37.745C90.0893 37.745 98.4297 46.0853 98.4297 56.279C98.4297 66.4728 90.0895 74.8132 79.8955 74.8132H25.81C18.4314 74.7552 12.4805 68.7571 12.4805 61.3782C12.4805 53.9993 18.4314 48.0015 25.81 47.9433C23.7178 34.497 39.1107 31.7272 44.0502 39.3737C46.7225 14.8558 78.4023 16.2392 79.8953 37.7448L79.8955 37.745Z" fill="#5CAEFF"/>
<path fill-rule="evenodd" clip-rule="evenodd" d="M56.9551 23.8478C56.653 23.8974 56.3436 23.8264 56.0934 23.6501C55.8431 23.4739 55.672 23.2065 55.6168 22.9054C55.5617 22.6044 55.6268 22.2937 55.7984 22.0402C55.9699 21.7867 56.234 21.6106 56.534 21.5498C56.8449 21.4924 57.15 21.4431 57.4484 21.4025C62.0354 20.7773 66.1465 21.908 69.2996 24.1816C72.4631 26.4629 74.6523 29.8904 75.385 33.8496C75.4316 34.1015 75.4719 34.3513 75.5055 34.5986C75.5259 34.7507 75.5162 34.9053 75.4769 35.0536C75.4375 35.202 75.3694 35.3411 75.2763 35.4631C75.1832 35.5851 75.067 35.6875 74.9343 35.7646C74.8016 35.8417 74.655 35.8919 74.5029 35.9123C74.3509 35.9327 74.1962 35.923 74.0479 35.8837C73.8996 35.8443 73.7604 35.7762 73.6385 35.6831C73.5165 35.59 73.414 35.4738 73.3369 35.3411C73.2599 35.2084 73.2097 35.0618 73.1893 34.9097C73.1602 34.6959 73.1261 34.4827 73.0869 34.2705C72.4654 30.9117 70.6121 28.0068 67.9354 26.0765C65.2482 24.1388 61.7203 23.1787 57.7596 23.7185C57.4904 23.7552 57.2221 23.7982 56.9549 23.8474L56.9551 23.8478ZM37.2533 43.6418C44.4234 43.6418 50.2898 49.5082 50.2898 56.6783V64.9873H45.3236V56.6783C45.3236 52.2494 41.6822 48.608 37.2533 48.608C32.8244 48.608 29.183 52.2494 29.183 56.6783V64.9873H24.2168V56.6783C24.2168 49.5082 30.0832 43.6418 37.2533 43.6418Z" fill="#BDDFFF"/>
<path fill-rule="evenodd" clip-rule="evenodd" d="M38.1322 43.6724C44.8965 44.1284 50.2898 49.8036 50.2898 56.6784V64.9874H47.0814V56.6784C47.0814 52.2495 43.44 48.6081 39.0111 48.6081C38.7143 48.6081 38.4211 48.6249 38.1322 48.6567C37.8404 48.6244 37.547 48.6082 37.2533 48.6081C32.8244 48.6081 29.183 52.2495 29.183 56.6784V64.9874H25.9746V56.6784C25.9746 49.8036 31.368 44.1282 38.1322 43.6724Z" fill="white"/>
<path d="M52.6193 60.6953H21.89C20.09 60.6953 18.6309 62.1545 18.6309 63.9545V85.6822C18.6309 87.4822 20.09 88.9414 21.89 88.9414H52.6193C54.4193 88.9414 55.8785 87.4822 55.8785 85.6822V63.9545C55.8785 62.1545 54.4193 60.6953 52.6193 60.6953Z" fill="#F9AC00"/>
<path d="M52.6187 60.6953H25.0756C23.2756 60.6953 21.8164 62.1545 21.8164 63.9545V85.6822C21.8164 87.4822 23.2756 88.9414 25.0756 88.9414H52.6187C54.4187 88.9414 55.8779 87.4822 55.8779 85.6822V63.9545C55.8779 62.1545 54.4187 60.6953 52.6187 60.6953Z" fill="#FDC72E"/>
<path fill-rule="evenodd" clip-rule="evenodd" d="M74.1775 60.6211L62.8883 64.4232C62.3672 64.5988 62.0312 65.0662 62.0312 65.616V76.0184C62.0312 82.8012 69.0916 85.6164 74.1775 88.9414C79.2635 85.6164 86.3238 82.8012 86.3238 76.0184V65.616C86.3238 65.0662 85.9881 64.5986 85.4668 64.4232L74.1775 60.6211Z" fill="#2DD62D"/>
<path fill-rule="evenodd" clip-rule="evenodd" d="M74.1773 60.6211L62.8881 64.4232C62.367 64.5986 62.0312 65.0662 62.0312 65.616V76.0184C62.0312 82.8012 69.0914 85.6164 74.1775 88.9414V60.6211H74.1773Z" fill="#00AB0B"/>
<path fill-rule="evenodd" clip-rule="evenodd" d="M74.177 60.6213L63.9279 64.073V64.1004L63.9277 75.9553C63.9277 80.767 66.6635 83.8266 69.9557 86.3648C71.3902 87.242 72.8506 88.0744 74.1768 88.9414V60.6211L74.177 60.6213Z" fill="#29B933"/>
<path fill-rule="evenodd" clip-rule="evenodd" d="M67.8771 73.6097C67.7484 73.328 67.7369 73.0068 67.845 72.7166C67.9532 72.4264 68.1722 72.1911 68.4539 72.0624C68.7355 71.9337 69.0568 71.9222 69.3469 72.0303C69.6371 72.1385 69.8724 72.3575 70.0011 72.6392L71.8771 76.7485L79.7146 68.9111C79.9343 68.6913 80.2324 68.5679 80.5431 68.5679C80.8539 68.5679 81.1519 68.6913 81.3716 68.9111C81.5914 69.1308 81.7148 69.4288 81.7148 69.7396C81.7148 70.0503 81.5914 70.3483 81.3716 70.5681L72.3439 79.596L72.3412 79.5933C72.2079 79.7266 72.0443 79.8257 71.8644 79.882C71.6845 79.9384 71.4937 79.9504 71.3082 79.9169C71.1226 79.8835 70.948 79.8056 70.7991 79.6899C70.6502 79.5743 70.5316 79.4243 70.4533 79.2529L67.8771 73.6097Z" fill="white"/>
<path fill-rule="evenodd" clip-rule="evenodd" d="M38.7186 67.0269C40.8262 67.0269 42.5348 68.7354 42.5348 70.8431C42.5348 72.3202 41.6953 73.6013 40.4676 74.2356V80.8608C40.4676 81.8228 39.6805 82.6101 38.7186 82.6101C37.7566 82.6101 36.9695 81.8229 36.9695 80.8608V74.2358C35.7418 73.6015 34.9023 72.3204 34.9023 70.8433C34.9023 68.7356 36.6109 67.0269 38.7186 67.0269Z" fill="#F9AC00"/>
<path fill-rule="evenodd" clip-rule="evenodd" d="M37.2539 67.0269C39.3615 67.0269 41.0701 68.7354 41.0701 70.8431C41.0701 72.3202 40.2307 73.6013 39.0029 74.2356V80.8608C39.0029 81.8228 38.2158 82.6101 37.2539 82.6101C36.2918 82.6101 35.5047 81.8229 35.5047 80.8608V74.2358C34.277 73.6015 33.4375 72.3204 33.4375 70.8433C33.4375 68.7356 35.1461 67.027 37.2537 67.027L37.2539 67.0269Z" fill="white"/>
</svg>
