<svg width="70" height="70" viewBox="0 0 100 100" fill="none" xmlns="http://www.w3.org/2000/svg">
<g clip-path="url(#clip0_1059_2770)">
<path d="M56.3357 56.0277L14.8888 97.4763C11.5314 100.83 6.09294 100.852 2.71247 97.4763C2.68415 97.4474 2.65583 97.4191 2.62692 97.3884C-0.643783 94.024 -0.614681 88.6277 2.71247 85.2997L44.1613 43.8509C45.3547 42.6554 47.2933 42.6575 48.4888 43.8509C48.9511 44.3138 46.2824 41.6445 56.3355 51.6999C57.5312 52.8939 57.5312 54.8341 56.3355 56.0273L56.3357 56.0277Z" fill="#0FA9DD"/>
<path d="M56.3357 56.0274L14.8889 97.4761C11.5314 100.83 6.09297 100.852 2.7125 97.4761C2.68418 97.4472 2.65586 97.4188 2.62695 97.3882L52.3264 47.689L56.3357 51.6997C57.5311 52.8937 57.5311 54.8339 56.3357 56.027V56.0274Z" fill="#0D91BD"/>
<path d="M89.5607 60.0037C75.8538 73.7107 53.5478 73.7121 39.8394 60.0037C26.131 46.2953 26.1323 23.9891 39.8394 10.2822C53.5478 -3.42637 75.8538 -3.42793 89.5624 10.2807C103.271 23.9893 103.269 46.2951 89.5609 60.0037H89.5607Z" fill="#5ECEF4"/>
<path d="M89.5611 60.0038C75.8543 73.7108 53.5482 73.7122 39.8398 60.0038L89.5629 10.2808C103.271 23.9892 103.27 46.2952 89.5613 60.0038H89.5611Z" fill="#0FA9DD"/>
<path d="M85.2318 55.6758C73.9107 66.9961 55.4896 66.9976 44.1667 55.6758C32.8447 44.3529 32.8462 25.931 44.1667 14.6105C55.4894 3.28767 73.9107 3.2863 85.2334 14.609C96.5556 25.931 96.5537 44.3529 85.2318 55.6758Z" fill="#EDF0F5"/>
<path d="M85.233 55.6757C73.9119 66.996 55.4908 66.9976 44.168 55.6757L85.2346 14.6089C96.5568 25.931 96.5549 44.3528 85.233 55.6757Z" fill="#D8DCEB"/>
<path d="M86.1252 35.11C86.0848 35.3206 86.5471 42.7682 80.5848 49.0741C72.5738 57.5473 59.102 57.5428 51.0979 49.0733C43.7172 41.2647 43.702 29.0378 51.0979 21.213C56.1896 15.8251 63.6115 13.779 70.4941 15.3956C73.0508 15.9952 74.3447 18.8579 73.1285 21.1846C72.4205 22.5405 71.0273 23.3477 69.5465 23.3477C69.2398 23.3477 68.9293 23.3133 68.6203 23.2417C64.4744 22.2758 60.0168 23.5178 56.9602 26.752C52.5062 31.461 52.5109 38.8309 56.9602 43.5352C61.7828 48.6399 69.9035 48.6376 74.723 43.5352C75.9867 42.2008 76.9326 40.5981 77.4902 38.8469H70.7436C68.8172 38.8469 67.2553 37.285 67.2553 35.3594C67.2553 33.4337 68.8164 31.8721 70.7436 31.8721H82.8582C84.6504 31.8721 86.1229 33.3163 86.1252 35.11Z" fill="#FFDA44"/>
<path d="M86.1256 35.1098V35.1426C86.1256 40.3389 84.1572 45.2957 80.5852 49.0738C76.775 53.1037 71.3787 55.5359 65.4277 55.4223V47.3549C69.0945 47.4725 72.4043 45.9893 74.7234 43.5342C75.9871 42.1997 76.933 40.5971 77.4906 38.8459H70.7439C68.8176 38.8459 67.2557 37.2842 67.2557 35.3584C67.2557 33.4326 68.8168 31.8711 70.7439 31.8711H82.8586C84.6508 31.8719 86.1232 33.316 86.1256 35.1098Z" fill="#0FA9DD"/>
<path d="M73.1291 21.1847C72.2738 22.822 70.4191 23.6597 68.6201 23.2408C64.4881 22.2802 60.0279 23.5049 56.96 26.7519L51.0977 21.2129C56.2012 15.8129 63.625 13.7826 70.4939 15.3955C73.0498 15.9959 74.3436 18.858 73.1291 21.1847Z" fill="#FF6426"/>
<path d="M80.5846 49.0737C72.5721 57.5483 59.1025 57.5425 51.0977 49.0729L56.9602 43.5347C61.7842 48.6396 69.9025 48.6382 74.7229 43.5347L80.5846 49.0737Z" fill="#6FBF6B"/>
</g>
<defs>
<clipPath id="clip0_1059_2770">
<rect width="100" height="100" fill="white"/>
</clipPath>
</defs>
</svg>
