<svg width="143" height="377" viewBox="0 0 143 377" fill="none" xmlns="http://www.w3.org/2000/svg">
<circle cx="10" cy="10" r="10" fill="#B91002"/>
<circle cx="10" cy="61" r="10" fill="#B91002"/>
<circle cx="10" cy="112" r="10" fill="#B91002"/>
<circle cx="10" cy="163" r="10" fill="#B91002"/>
<circle cx="10" cy="214" r="10" fill="#B91002"/>
<circle cx="10" cy="265" r="10" fill="#B91002"/>
<circle cx="51" cy="10" r="10" fill="#B91002"/>
<circle cx="51" cy="61" r="10" fill="#B91002"/>
<circle cx="51" cy="112" r="10" fill="#B91002"/>
<circle cx="51" cy="163" r="10" fill="#B91002"/>
<circle cx="51" cy="214" r="10" fill="#B91002"/>
<circle cx="51" cy="265" r="10" fill="#B91002"/>
<circle cx="92" cy="10" r="10" fill="#B91002"/>
<circle cx="92" cy="61" r="10" fill="#B91002"/>
<circle cx="92" cy="112" r="10" fill="#B91002"/>
<circle cx="92" cy="163" r="10" fill="#B91002"/>
<circle cx="92" cy="214" r="10" fill="#B91002"/>
<circle cx="92" cy="265" r="10" fill="#B91002"/>
<circle cx="133" cy="10" r="10" fill="#B91002"/>
<circle cx="133" cy="61" r="10" fill="#B91002"/>
<circle cx="133" cy="112" r="10" fill="#B91002"/>
<circle cx="133" cy="163" r="10" fill="#B91002"/>
<circle cx="133" cy="214" r="10" fill="#B91002"/>
<circle cx="133" cy="265" r="10" fill="#B91002"/>
<circle cx="10" cy="112" r="10" fill="#B91002"/>
<circle cx="10" cy="163" r="10" fill="#B91002"/>
<circle cx="10" cy="214" r="10" fill="#B91002"/>
<circle cx="10" cy="265" r="10" fill="#B91002"/>
<circle cx="10" cy="316" r="10" fill="#B91002"/>
<circle cx="10" cy="367" r="10" fill="#B91002"/>
<circle cx="51" cy="112" r="10" fill="#B91002"/>
<circle cx="51" cy="163" r="10" fill="#B91002"/>
<circle cx="51" cy="214" r="10" fill="#B91002"/>
<circle cx="51" cy="265" r="10" fill="#B91002"/>
<circle cx="51" cy="316" r="10" fill="#B91002"/>
<circle cx="51" cy="367" r="10" fill="#B91002"/>
<circle cx="92" cy="112" r="10" fill="#B91002"/>
<circle cx="92" cy="163" r="10" fill="#B91002"/>
<circle cx="92" cy="214" r="10" fill="#B91002"/>
<circle cx="92" cy="265" r="10" fill="#B91002"/>
<circle cx="92" cy="316" r="10" fill="#B91002"/>
<circle cx="92" cy="367" r="10" fill="#B91002"/>
<circle cx="133" cy="112" r="10" fill="#B91002"/>
<circle cx="133" cy="163" r="10" fill="#B91002"/>
<circle cx="133" cy="214" r="10" fill="#B91002"/>
<circle cx="133" cy="265" r="10" fill="#B91002"/>
<circle cx="133" cy="316" r="10" fill="#B91002"/>
<circle cx="133" cy="367" r="10" fill="#B91002"/>
</svg>
