<?xml version="1.0" encoding="UTF-8" standalone="no"?>
<!-- Created with Inkscape (http://www.inkscape.org/) -->

<svg
   version="1.1"
   id="svg405"
   xml:space="preserve"
   width="682.66669"
   height="682.66669"
   viewBox="0 0 682.66669 682.66669"
   xmlns="http://www.w3.org/2000/svg"
   xmlns:svg="http://www.w3.org/2000/svg"><defs
     id="defs409"><clipPath
       clipPathUnits="userSpaceOnUse"
       id="clipPath419"><path
         d="M 0,512 H 512 V 0 H 0 Z"
         id="path417" /></clipPath></defs><g
     id="g411"
     transform="matrix(1.3333333,0,0,-1.3333333,0,682.66667)"><g
       id="g413"><g
         id="g415"
         clip-path="url(#clipPath419)"><g
           id="g421"
           transform="translate(371.0002,504.5)"><path
             d="m 0,0 h -105.096 c -26.909,0 -48.723,-21.747 -48.723,-48.574 V -138.5"
             style="fill:none;stroke:#000000;stroke-width:15;stroke-linecap:round;stroke-linejoin:round;stroke-miterlimit:10;stroke-dasharray:none;stroke-opacity:1"
             id="path423" /></g><g
           id="g425"
           transform="translate(237.3388,242.9986)"><path
             d="m 0,0 c 8.026,-5.8 17.895,-9.22 28.566,-9.22 h 91.28 v -44.26 l 57.862,44.26 h 24.963 c 26.909,0 48.723,21.748 48.723,48.575 v 173.572 c 0,26.827 -21.814,48.574 -48.723,48.574 h -22.01"
             style="fill:none;stroke:#000000;stroke-width:15;stroke-linecap:round;stroke-linejoin:round;stroke-miterlimit:10;stroke-dasharray:none;stroke-opacity:1"
             id="path427" /></g><g
           id="g429"
           transform="translate(315.4131,304.9772)"><path
             d="m 0,0 5.022,-4.065 c 7.962,-6.446 17.895,-9.962 28.139,-9.962 h 71.292 c 6.758,0 12.2,5.637 11.878,12.466 -0.301,6.396 0.014,64.645 0.014,71.212 0,6.568 -5.324,11.892 -11.892,11.892 l -48.344,0.146 5.919,14.018 c 6.151,14.567 5.156,31.168 -2.688,44.896 v 0 c -2.218,3.882 -7.209,5.156 -11.017,2.813 v 0 c -2.34,-1.44 -3.765,-3.991 -3.765,-6.739 0,-12.57 -4.59,-24.709 -12.907,-34.135 L 0.825,67.661"
             style="fill:none;stroke:#000000;stroke-width:15;stroke-linecap:round;stroke-linejoin:round;stroke-miterlimit:10;stroke-dasharray:none;stroke-opacity:1"
             id="path431" /></g><path
           d="m 314.496,294.25 h -40.34 v 90.765 h 40.34 z"
           style="fill:none;stroke:#000000;stroke-width:15;stroke-linecap:round;stroke-linejoin:round;stroke-miterlimit:10;stroke-dasharray:none;stroke-opacity:1"
           id="path433" /><g
           id="g435"
           transform="translate(23.2673,270)"><path
             d="m 0,0 v -75.682 c 0,-21.155 17.202,-38.305 38.423,-38.305 h 75.425 v -35.23 l 45.629,35.23"
             style="fill:none;stroke:#000000;stroke-width:15;stroke-linecap:round;stroke-linejoin:round;stroke-miterlimit:10;stroke-dasharray:none;stroke-opacity:1"
             id="path437" /></g><g
           id="g439"
           transform="translate(236.2645,185)"><path
             d="m 0,0 c 0.748,2.983 1.145,6.104 1.145,9.318 v 136.877 c 0,21.155 -17.203,38.305 -38.423,38.305 h -137.297 c -21.22,0 -38.422,-17.15 -38.422,-38.305 V 130"
             style="fill:none;stroke:#000000;stroke-width:15;stroke-linecap:round;stroke-linejoin:round;stroke-miterlimit:10;stroke-dasharray:none;stroke-opacity:1"
             id="path441" /></g><g
           id="g443"
           transform="translate(79.9881,277.2979)"><path
             d="M 0,0 H 100.7"
             style="fill:none;stroke:#000000;stroke-width:15;stroke-linecap:round;stroke-linejoin:round;stroke-miterlimit:10;stroke-dasharray:none;stroke-opacity:1"
             id="path445" /></g><g
           id="g447"
           transform="translate(79.9881,244.0018)"><path
             d="M 0,0 H 100.7"
             style="fill:none;stroke:#000000;stroke-width:15;stroke-linecap:round;stroke-linejoin:round;stroke-miterlimit:10;stroke-dasharray:none;stroke-opacity:1"
             id="path449" /></g><g
           id="g451"
           transform="translate(155.3103,311)"><path
             d="M 0,0 -16.648,-100.7"
             style="fill:none;stroke:#000000;stroke-width:15;stroke-linecap:round;stroke-linejoin:round;stroke-miterlimit:10;stroke-dasharray:none;stroke-opacity:1"
             id="path453" /></g><g
           id="g455"
           transform="translate(122.0143,311)"><path
             d="M 0,0 -16.648,-100.7"
             style="fill:none;stroke:#000000;stroke-width:15;stroke-linecap:round;stroke-linejoin:round;stroke-miterlimit:10;stroke-dasharray:none;stroke-opacity:1"
             id="path457" /></g><g
           id="g459"
           transform="translate(339,120)"><path
             d="m 0,0 v 36.819 c 0,15.012 -12.208,27.183 -27.267,27.183 h -97.432 c -15.059,0 -27.266,-12.171 -27.266,-27.183 v -97.135 c 0,-15.013 12.207,-27.183 27.266,-27.183 h 53.525 V -112.5 l 32.381,25.001 h 11.526 C -12.208,-87.499 0,-75.329 0,-60.316 V -47"
             style="fill:none;stroke:#000000;stroke-width:15;stroke-linecap:round;stroke-linejoin:round;stroke-miterlimit:10;stroke-dasharray:none;stroke-opacity:1"
             id="path461" /></g><g
           id="g463"
           transform="translate(263.0173,75.2472)"><path
             d="M 0,0 C 23.446,12.429 35.593,23.005 35.593,39.389 35.593,61.988 7.91,67.638 0,50.688 -9.04,68.203 -35.593,61.988 -35.593,39.389 -35.593,23.005 -23.446,12.429 0,0 Z"
             style="fill:none;stroke:#000000;stroke-width:15;stroke-linecap:round;stroke-linejoin:round;stroke-miterlimit:10;stroke-dasharray:none;stroke-opacity:1"
             id="path465" /></g></g></g></g></svg>
